<?xml version="1.0" encoding="utf-8" standalone="no"?>
<!DOCTYPE svg PUBLIC "-//W3C//DTD SVG 1.1//EN"
  "http://www.w3.org/Graphics/SVG/1.1/DTD/svg11.dtd">
<svg height="288pt" version="1.1" viewBox="0 0 864 288" width="864pt" xmlns="http://www.w3.org/2000/svg" xmlns:xlink="http://www.w3.org/1999/xlink">
 <metadata>
  <rdf:RDF xmlns:cc="http://creativecommons.org/ns#" xmlns:dc="http://purl.org/dc/elements/1.1/" xmlns:rdf="http://www.w3.org/1999/02/22-rdf-syntax-ns#">
   <cc:Work>
    <dc:type rdf:resource="http://purl.org/dc/dcmitype/StillImage"/>
    <dc:date>2022-04-15T21:55:02.227950</dc:date>
    <dc:format>image/svg+xml</dc:format>
    <dc:creator>
     <cc:Agent>
      <dc:title>Matplotlib v3.4.3, https://matplotlib.org/</dc:title>
     </cc:Agent>
    </dc:creator>
   </cc:Work>
  </rdf:RDF>
 </metadata>
 <defs>
  <style type="text/css">*{stroke-linecap:butt;stroke-linejoin:round;}</style>
 </defs>
 <g id="figure_1">
  <g id="patch_1">
   <path d="M 0 288 
L 864 288 
L 864 0 
L 0 0 
z
" style="fill:#ffffff;"/>
  </g>
  <g id="axes_1">
   <g id="patch_2">
    <path d="M 108 252 
L 777.6 252 
L 777.6 34.56 
L 108 34.56 
z
" style="fill:#ffffff;"/>
   </g>
   <g id="PolyCollection_1">
    <defs>
     <path d="M 138.436364 -36.001942 
L 138.436364 -36 
L 141.495295 -36 
L 144.554226 -36 
L 147.613157 -36 
L 150.672088 -36 
L 153.731019 -36 
L 156.78995 -36 
L 159.848881 -36 
L 162.907812 -36 
L 165.966743 -36 
L 169.025674 -36 
L 172.084605 -36 
L 175.143536 -36 
L 178.202467 -36 
L 181.261398 -36 
L 184.320329 -36 
L 187.37926 -36 
L 190.438191 -36 
L 193.497122 -36 
L 196.556053 -36 
L 199.614984 -36 
L 202.673915 -36 
L 205.732846 -36 
L 208.791777 -36 
L 211.850708 -36 
L 214.909639 -36 
L 217.96857 -36 
L 221.027501 -36 
L 224.086432 -36 
L 227.145363 -36 
L 230.204294 -36 
L 233.263225 -36 
L 236.322156 -36 
L 239.381087 -36 
L 242.440018 -36 
L 245.498949 -36 
L 248.55788 -36 
L 251.616811 -36 
L 254.675742 -36 
L 257.734673 -36 
L 260.793604 -36 
L 263.852535 -36 
L 266.911466 -36 
L 269.970397 -36 
L 273.029328 -36 
L 276.088259 -36 
L 279.14719 -36 
L 282.206122 -36 
L 285.265053 -36 
L 288.323984 -36 
L 291.382915 -36 
L 294.441846 -36 
L 297.500777 -36 
L 300.559708 -36 
L 303.618639 -36 
L 306.67757 -36 
L 309.736501 -36 
L 312.795432 -36 
L 315.854363 -36 
L 318.913294 -36 
L 321.972225 -36 
L 325.031156 -36 
L 328.090087 -36 
L 331.149018 -36 
L 334.207949 -36 
L 337.26688 -36 
L 340.325811 -36 
L 343.384742 -36 
L 346.443673 -36 
L 349.502604 -36 
L 352.561535 -36 
L 355.620466 -36 
L 358.679397 -36 
L 361.738328 -36 
L 364.797259 -36 
L 367.85619 -36 
L 370.915121 -36 
L 373.974052 -36 
L 377.032983 -36 
L 380.091914 -36 
L 383.150845 -36 
L 386.209776 -36 
L 389.268707 -36 
L 392.327638 -36 
L 395.386569 -36 
L 398.4455 -36 
L 401.504431 -36 
L 404.563362 -36 
L 407.622293 -36 
L 410.681224 -36 
L 413.740155 -36 
L 416.799086 -36 
L 419.858017 -36 
L 422.916948 -36 
L 425.975879 -36 
L 429.03481 -36 
L 432.093741 -36 
L 435.152672 -36 
L 438.211603 -36 
L 441.270534 -36 
L 444.329466 -36 
L 447.388397 -36 
L 450.447328 -36 
L 453.506259 -36 
L 456.56519 -36 
L 459.624121 -36 
L 462.683052 -36 
L 465.741983 -36 
L 468.800914 -36 
L 471.859845 -36 
L 474.918776 -36 
L 477.977707 -36 
L 481.036638 -36 
L 484.095569 -36 
L 487.1545 -36 
L 490.213431 -36 
L 493.272362 -36 
L 496.331293 -36 
L 499.390224 -36 
L 502.449155 -36 
L 505.508086 -36 
L 508.567017 -36 
L 511.625948 -36 
L 514.684879 -36 
L 517.74381 -36 
L 520.802741 -36 
L 523.861672 -36 
L 526.920603 -36 
L 529.979534 -36 
L 533.038465 -36 
L 536.097396 -36 
L 539.156327 -36 
L 542.215258 -36 
L 545.274189 -36 
L 548.33312 -36 
L 551.392051 -36 
L 554.450982 -36 
L 557.509913 -36 
L 560.568844 -36 
L 563.627775 -36 
L 566.686706 -36 
L 569.745637 -36 
L 572.804568 -36 
L 575.863499 -36 
L 578.92243 -36 
L 581.981361 -36 
L 585.040292 -36 
L 588.099223 -36 
L 591.158154 -36 
L 594.217085 -36 
L 597.276016 -36 
L 600.334947 -36 
L 603.393878 -36 
L 606.45281 -36 
L 609.511741 -36 
L 612.570672 -36 
L 615.629603 -36 
L 618.688534 -36 
L 621.747465 -36 
L 624.806396 -36 
L 627.865327 -36 
L 630.924258 -36 
L 633.983189 -36 
L 637.04212 -36 
L 640.101051 -36 
L 643.159982 -36 
L 646.218913 -36 
L 649.277844 -36 
L 652.336775 -36 
L 655.395706 -36 
L 658.454637 -36 
L 661.513568 -36 
L 664.572499 -36 
L 667.63143 -36 
L 670.690361 -36 
L 673.749292 -36 
L 676.808223 -36 
L 679.867154 -36 
L 682.926085 -36 
L 685.985016 -36 
L 689.043947 -36 
L 692.102878 -36 
L 695.161809 -36 
L 698.22074 -36 
L 701.279671 -36 
L 704.338602 -36 
L 707.397533 -36 
L 710.456464 -36 
L 713.515395 -36 
L 716.574326 -36 
L 719.633257 -36 
L 722.692188 -36 
L 725.751119 -36 
L 728.81005 -36 
L 731.868981 -36 
L 734.927912 -36 
L 737.986843 -36 
L 741.045774 -36 
L 744.104705 -36 
L 747.163636 -36 
L 747.163636 -36.001462 
L 747.163636 -36.001462 
L 744.104705 -36.003869 
L 741.045774 -36.009095 
L 737.986843 -36.018992 
L 734.927912 -36.035231 
L 731.868981 -36.058056 
L 728.81005 -36.084982 
L 725.751119 -36.110503 
L 722.692188 -36.127638 
L 719.633257 -36.130964 
L 716.574326 -36.119367 
L 713.515395 -36.096645 
L 710.456464 -36.069508 
L 707.397533 -36.044408 
L 704.338602 -36.025202 
L 701.279671 -36.012705 
L 698.22074 -36.00569 
L 695.161809 -36.002264 
L 692.102878 -36.000802 
L 689.043947 -36.000261 
L 685.985016 -36.000114 
L 682.926085 -36.00018 
L 679.867154 -36.000544 
L 676.808223 -36.001594 
L 673.749292 -36.004175 
L 670.690361 -36.009719 
L 667.63143 -36.020095 
L 664.572499 -36.036908 
L 661.513568 -36.060217 
L 658.454637 -36.087274 
L 655.395706 -36.112362 
L 652.336775 -36.128513 
L 649.277844 -36.130602 
L 646.218913 -36.118026 
L 643.159982 -36.095151 
L 640.101051 -36.069295 
L 637.04212 -36.047745 
L 633.983189 -36.035671 
L 630.924258 -36.035558 
L 627.865327 -36.04743 
L 624.806396 -36.068851 
L 621.747465 -36.094718 
L 618.688534 -36.117821 
L 615.629603 -36.130974 
L 612.570672 -36.130143 
L 609.511741 -36.116735 
L 606.45281 -36.097505 
L 603.393878 -36.082102 
L 600.334947 -36.079789 
L 597.276016 -36.096956 
L 594.217085 -36.136108 
L 591.158154 -36.196041 
L 588.099223 -36.272589 
L 585.040292 -36.359259 
L 581.981361 -36.447329 
L 578.92243 -36.525703 
L 575.863499 -36.581712 
L 572.804568 -36.603977 
L 569.745637 -36.586808 
L 566.686706 -36.533892 
L 563.627775 -36.458863 
L 560.568844 -36.382203 
L 557.509913 -36.325902 
L 554.450982 -36.307934 
L 551.392051 -36.338096 
L 548.33312 -36.4161 
L 545.274189 -36.532303 
L 542.215258 -36.670727 
L 539.156327 -36.813153 
L 536.097396 -36.942836 
L 533.038465 -37.047212 
L 529.979534 -37.120157 
L 526.920603 -37.164439 
L 523.861672 -37.193373 
L 520.802741 -37.229014 
L 517.74381 -37.295211 
L 514.684879 -37.407905 
L 511.625948 -37.568786 
L 508.567017 -37.767146 
L 505.508086 -37.988658 
L 502.449155 -38.224309 
L 499.390224 -38.473346 
L 496.331293 -38.740057 
L 493.272362 -39.029323 
L 490.213431 -39.345475 
L 487.1545 -39.69449 
L 484.095569 -40.086139 
L 481.036638 -40.53319 
L 477.977707 -41.048041 
L 474.918776 -41.640039 
L 471.859845 -42.316687 
L 468.800914 -43.08777 
L 465.741983 -43.965882 
L 462.683052 -44.956775 
L 459.624121 -46.04252 
L 456.56519 -47.172779 
L 453.506259 -48.279703 
L 450.447328 -49.314248 
L 447.388397 -50.280338 
L 444.329466 -51.239939 
L 441.270534 -52.282327 
L 438.211603 -53.477405 
L 435.152672 -54.844439 
L 432.093741 -56.357551 
L 429.03481 -57.986214 
L 425.975879 -59.746178 
L 422.916948 -61.726295 
L 419.858017 -64.068016 
L 416.799086 -66.903482 
L 413.740155 -70.286255 
L 410.681224 -74.154847 
L 407.622293 -78.349206 
L 404.563362 -82.669785 
L 401.504431 -86.948699 
L 398.4455 -91.102412 
L 395.386569 -95.15057 
L 392.327638 -99.202733 
L 389.268707 -103.422931 
L 386.209776 -107.980243 
L 383.150845 -112.992597 
L 380.091914 -118.480901 
L 377.032983 -124.363986 
L 373.974052 -130.517654 
L 370.915121 -136.880603 
L 367.85619 -143.541768 
L 364.797259 -150.736582 
L 361.738328 -158.734276 
L 358.679397 -167.67727 
L 355.620466 -177.47272 
L 352.561535 -187.803614 
L 349.502604 -198.247005 
L 346.443673 -208.41539 
L 343.384742 -218.019783 
L 340.325811 -226.802982 
L 337.26688 -234.381856 
L 334.207949 -240.111171 
L 331.149018 -243.085714 
L 328.090087 -242.324964 
L 325.031156 -237.081365 
L 321.972225 -227.142044 
L 318.913294 -212.990544 
L 315.854363 -195.75557 
L 312.795432 -176.965713 
L 309.736501 -158.208406 
L 306.67757 -140.819173 
L 303.618639 -125.692746 
L 300.559708 -113.239242 
L 297.500777 -103.452372 
L 294.441846 -96.038261 
L 291.382915 -90.561241 
L 288.323984 -86.571918 
L 285.265053 -83.686512 
L 282.206122 -81.599885 
L 279.14719 -80.046207 
L 276.088259 -78.753573 
L 273.029328 -77.441517 
L 269.970397 -75.873125 
L 266.911466 -73.923626 
L 263.852535 -71.609516 
L 260.793604 -69.05453 
L 257.734673 -66.419688 
L 254.675742 -63.843634 
L 251.616811 -61.41405 
L 248.55788 -59.159457 
L 245.498949 -57.050976 
L 242.440018 -55.023104 
L 239.381087 -53.021337 
L 236.322156 -51.056288 
L 233.263225 -49.225855 
L 230.204294 -47.686435 
L 227.145363 -46.592354 
L 224.086432 -46.040955 
L 221.027501 -46.046562 
L 217.96857 -46.539502 
L 214.909639 -47.372348 
L 211.850708 -48.324222 
L 208.791777 -49.115481 
L 205.732846 -49.456444 
L 202.673915 -49.135421 
L 199.614984 -48.109995 
L 196.556053 -46.53967 
L 193.497122 -44.723416 
L 190.438191 -42.970792 
L 187.37926 -41.484204 
L 184.320329 -40.317518 
L 181.261398 -39.416528 
L 178.202467 -38.694183 
L 175.143536 -38.086767 
L 172.084605 -37.568614 
L 169.025674 -37.137365 
L 165.966743 -36.794012 
L 162.907812 -36.53291 
L 159.848881 -36.342295 
L 156.78995 -36.208588 
L 153.731019 -36.119217 
L 150.672088 -36.063148 
L 147.613157 -36.030674 
L 144.554226 -36.013549 
L 141.495295 -36.005408 
L 138.436364 -36.001942 
z
" id="m8d50be8313" style="stroke:#1f77b4;"/>
    </defs>
    <g clip-path="url(#p2396bb1e50)">
     <use style="fill:#1f77b4;fill-opacity:0.25;stroke:#1f77b4;" x="0" xlink:href="#m8d50be8313" y="288"/>
    </g>
   </g>
   <g id="matplotlib.axis_1">
    <g id="xtick_1">
     <g id="line2d_1">
      <defs>
       <path d="M 0 0 
L 0 3.5 
" id="mec25209bda" style="stroke:#000000;stroke-width:0.8;"/>
      </defs>
      <g>
       <use style="stroke:#000000;stroke-width:0.8;" x="159.709342" xlink:href="#mec25209bda" y="252"/>
      </g>
     </g>
     <g id="text_1">
      <!-- 0 -->
      <g transform="translate(156.528092 266.598437)scale(0.1 -0.1)">
       <defs>
        <path d="M 2034 4250 
Q 1547 4250 1301 3770 
Q 1056 3291 1056 2328 
Q 1056 1369 1301 889 
Q 1547 409 2034 409 
Q 2525 409 2770 889 
Q 3016 1369 3016 2328 
Q 3016 3291 2770 3770 
Q 2525 4250 2034 4250 
z
M 2034 4750 
Q 2819 4750 3233 4129 
Q 3647 3509 3647 2328 
Q 3647 1150 3233 529 
Q 2819 -91 2034 -91 
Q 1250 -91 836 529 
Q 422 1150 422 2328 
Q 422 3509 836 4129 
Q 1250 4750 2034 4750 
z
" id="DejaVuSans-30" transform="scale(0.015625)"/>
       </defs>
       <use xlink:href="#DejaVuSans-30"/>
      </g>
     </g>
    </g>
    <g id="xtick_2">
     <g id="line2d_2">
      <g>
       <use style="stroke:#000000;stroke-width:0.8;" x="249.579392" xlink:href="#mec25209bda" y="252"/>
      </g>
     </g>
     <g id="text_2">
      <!-- 50 -->
      <g transform="translate(243.216892 266.598437)scale(0.1 -0.1)">
       <defs>
        <path d="M 691 4666 
L 3169 4666 
L 3169 4134 
L 1269 4134 
L 1269 2991 
Q 1406 3038 1543 3061 
Q 1681 3084 1819 3084 
Q 2600 3084 3056 2656 
Q 3513 2228 3513 1497 
Q 3513 744 3044 326 
Q 2575 -91 1722 -91 
Q 1428 -91 1123 -41 
Q 819 9 494 109 
L 494 744 
Q 775 591 1075 516 
Q 1375 441 1709 441 
Q 2250 441 2565 725 
Q 2881 1009 2881 1497 
Q 2881 1984 2565 2268 
Q 2250 2553 1709 2553 
Q 1456 2553 1204 2497 
Q 953 2441 691 2322 
L 691 4666 
z
" id="DejaVuSans-35" transform="scale(0.015625)"/>
       </defs>
       <use xlink:href="#DejaVuSans-35"/>
       <use x="63.623047" xlink:href="#DejaVuSans-30"/>
      </g>
     </g>
    </g>
    <g id="xtick_3">
     <g id="line2d_3">
      <g>
       <use style="stroke:#000000;stroke-width:0.8;" x="339.449442" xlink:href="#mec25209bda" y="252"/>
      </g>
     </g>
     <g id="text_3">
      <!-- 100 -->
      <g transform="translate(329.905692 266.598437)scale(0.1 -0.1)">
       <defs>
        <path d="M 794 531 
L 1825 531 
L 1825 4091 
L 703 3866 
L 703 4441 
L 1819 4666 
L 2450 4666 
L 2450 531 
L 3481 531 
L 3481 0 
L 794 0 
L 794 531 
z
" id="DejaVuSans-31" transform="scale(0.015625)"/>
       </defs>
       <use xlink:href="#DejaVuSans-31"/>
       <use x="63.623047" xlink:href="#DejaVuSans-30"/>
       <use x="127.246094" xlink:href="#DejaVuSans-30"/>
      </g>
     </g>
    </g>
    <g id="xtick_4">
     <g id="line2d_4">
      <g>
       <use style="stroke:#000000;stroke-width:0.8;" x="429.319492" xlink:href="#mec25209bda" y="252"/>
      </g>
     </g>
     <g id="text_4">
      <!-- 150 -->
      <g transform="translate(419.775742 266.598437)scale(0.1 -0.1)">
       <use xlink:href="#DejaVuSans-31"/>
       <use x="63.623047" xlink:href="#DejaVuSans-35"/>
       <use x="127.246094" xlink:href="#DejaVuSans-30"/>
      </g>
     </g>
    </g>
    <g id="xtick_5">
     <g id="line2d_5">
      <g>
       <use style="stroke:#000000;stroke-width:0.8;" x="519.189543" xlink:href="#mec25209bda" y="252"/>
      </g>
     </g>
     <g id="text_5">
      <!-- 200 -->
      <g transform="translate(509.645793 266.598437)scale(0.1 -0.1)">
       <defs>
        <path d="M 1228 531 
L 3431 531 
L 3431 0 
L 469 0 
L 469 531 
Q 828 903 1448 1529 
Q 2069 2156 2228 2338 
Q 2531 2678 2651 2914 
Q 2772 3150 2772 3378 
Q 2772 3750 2511 3984 
Q 2250 4219 1831 4219 
Q 1534 4219 1204 4116 
Q 875 4013 500 3803 
L 500 4441 
Q 881 4594 1212 4672 
Q 1544 4750 1819 4750 
Q 2544 4750 2975 4387 
Q 3406 4025 3406 3419 
Q 3406 3131 3298 2873 
Q 3191 2616 2906 2266 
Q 2828 2175 2409 1742 
Q 1991 1309 1228 531 
z
" id="DejaVuSans-32" transform="scale(0.015625)"/>
       </defs>
       <use xlink:href="#DejaVuSans-32"/>
       <use x="63.623047" xlink:href="#DejaVuSans-30"/>
       <use x="127.246094" xlink:href="#DejaVuSans-30"/>
      </g>
     </g>
    </g>
    <g id="xtick_6">
     <g id="line2d_6">
      <g>
       <use style="stroke:#000000;stroke-width:0.8;" x="609.059593" xlink:href="#mec25209bda" y="252"/>
      </g>
     </g>
     <g id="text_6">
      <!-- 250 -->
      <g transform="translate(599.515843 266.598437)scale(0.1 -0.1)">
       <use xlink:href="#DejaVuSans-32"/>
       <use x="63.623047" xlink:href="#DejaVuSans-35"/>
       <use x="127.246094" xlink:href="#DejaVuSans-30"/>
      </g>
     </g>
    </g>
    <g id="xtick_7">
     <g id="line2d_7">
      <g>
       <use style="stroke:#000000;stroke-width:0.8;" x="698.929643" xlink:href="#mec25209bda" y="252"/>
      </g>
     </g>
     <g id="text_7">
      <!-- 300 -->
      <g transform="translate(689.385893 266.598437)scale(0.1 -0.1)">
       <defs>
        <path d="M 2597 2516 
Q 3050 2419 3304 2112 
Q 3559 1806 3559 1356 
Q 3559 666 3084 287 
Q 2609 -91 1734 -91 
Q 1441 -91 1130 -33 
Q 819 25 488 141 
L 488 750 
Q 750 597 1062 519 
Q 1375 441 1716 441 
Q 2309 441 2620 675 
Q 2931 909 2931 1356 
Q 2931 1769 2642 2001 
Q 2353 2234 1838 2234 
L 1294 2234 
L 1294 2753 
L 1863 2753 
Q 2328 2753 2575 2939 
Q 2822 3125 2822 3475 
Q 2822 3834 2567 4026 
Q 2313 4219 1838 4219 
Q 1578 4219 1281 4162 
Q 984 4106 628 3988 
L 628 4550 
Q 988 4650 1302 4700 
Q 1616 4750 1894 4750 
Q 2613 4750 3031 4423 
Q 3450 4097 3450 3541 
Q 3450 3153 3228 2886 
Q 3006 2619 2597 2516 
z
" id="DejaVuSans-33" transform="scale(0.015625)"/>
       </defs>
       <use xlink:href="#DejaVuSans-33"/>
       <use x="63.623047" xlink:href="#DejaVuSans-30"/>
       <use x="127.246094" xlink:href="#DejaVuSans-30"/>
      </g>
     </g>
    </g>
   </g>
   <g id="matplotlib.axis_2"/>
   <g id="patch_3">
    <path d="M 108 252 
L 108 34.56 
" style="fill:none;stroke:#000000;stroke-linecap:square;stroke-linejoin:miter;stroke-width:0.8;"/>
   </g>
   <g id="patch_4">
    <path d="M 777.6 252 
L 777.6 34.56 
" style="fill:none;stroke:#000000;stroke-linecap:square;stroke-linejoin:miter;stroke-width:0.8;"/>
   </g>
   <g id="patch_5">
    <path d="M 108 252 
L 777.6 252 
" style="fill:none;stroke:#000000;stroke-linecap:square;stroke-linejoin:miter;stroke-width:0.8;"/>
   </g>
   <g id="patch_6">
    <path d="M 108 34.56 
L 777.6 34.56 
" style="fill:none;stroke:#000000;stroke-linecap:square;stroke-linejoin:miter;stroke-width:0.8;"/>
   </g>
   <g id="text_8">
    <!-- Distribution of movie duration (in minutes) -->
    <g transform="translate(314.369063 28.56)scale(0.12 -0.12)">
     <defs>
      <path d="M 1259 4147 
L 1259 519 
L 2022 519 
Q 2988 519 3436 956 
Q 3884 1394 3884 2338 
Q 3884 3275 3436 3711 
Q 2988 4147 2022 4147 
L 1259 4147 
z
M 628 4666 
L 1925 4666 
Q 3281 4666 3915 4102 
Q 4550 3538 4550 2338 
Q 4550 1131 3912 565 
Q 3275 0 1925 0 
L 628 0 
L 628 4666 
z
" id="DejaVuSans-44" transform="scale(0.015625)"/>
      <path d="M 603 3500 
L 1178 3500 
L 1178 0 
L 603 0 
L 603 3500 
z
M 603 4863 
L 1178 4863 
L 1178 4134 
L 603 4134 
L 603 4863 
z
" id="DejaVuSans-69" transform="scale(0.015625)"/>
      <path d="M 2834 3397 
L 2834 2853 
Q 2591 2978 2328 3040 
Q 2066 3103 1784 3103 
Q 1356 3103 1142 2972 
Q 928 2841 928 2578 
Q 928 2378 1081 2264 
Q 1234 2150 1697 2047 
L 1894 2003 
Q 2506 1872 2764 1633 
Q 3022 1394 3022 966 
Q 3022 478 2636 193 
Q 2250 -91 1575 -91 
Q 1294 -91 989 -36 
Q 684 19 347 128 
L 347 722 
Q 666 556 975 473 
Q 1284 391 1588 391 
Q 1994 391 2212 530 
Q 2431 669 2431 922 
Q 2431 1156 2273 1281 
Q 2116 1406 1581 1522 
L 1381 1569 
Q 847 1681 609 1914 
Q 372 2147 372 2553 
Q 372 3047 722 3315 
Q 1072 3584 1716 3584 
Q 2034 3584 2315 3537 
Q 2597 3491 2834 3397 
z
" id="DejaVuSans-73" transform="scale(0.015625)"/>
      <path d="M 1172 4494 
L 1172 3500 
L 2356 3500 
L 2356 3053 
L 1172 3053 
L 1172 1153 
Q 1172 725 1289 603 
Q 1406 481 1766 481 
L 2356 481 
L 2356 0 
L 1766 0 
Q 1100 0 847 248 
Q 594 497 594 1153 
L 594 3053 
L 172 3053 
L 172 3500 
L 594 3500 
L 594 4494 
L 1172 4494 
z
" id="DejaVuSans-74" transform="scale(0.015625)"/>
      <path d="M 2631 2963 
Q 2534 3019 2420 3045 
Q 2306 3072 2169 3072 
Q 1681 3072 1420 2755 
Q 1159 2438 1159 1844 
L 1159 0 
L 581 0 
L 581 3500 
L 1159 3500 
L 1159 2956 
Q 1341 3275 1631 3429 
Q 1922 3584 2338 3584 
Q 2397 3584 2469 3576 
Q 2541 3569 2628 3553 
L 2631 2963 
z
" id="DejaVuSans-72" transform="scale(0.015625)"/>
      <path d="M 3116 1747 
Q 3116 2381 2855 2742 
Q 2594 3103 2138 3103 
Q 1681 3103 1420 2742 
Q 1159 2381 1159 1747 
Q 1159 1113 1420 752 
Q 1681 391 2138 391 
Q 2594 391 2855 752 
Q 3116 1113 3116 1747 
z
M 1159 2969 
Q 1341 3281 1617 3432 
Q 1894 3584 2278 3584 
Q 2916 3584 3314 3078 
Q 3713 2572 3713 1747 
Q 3713 922 3314 415 
Q 2916 -91 2278 -91 
Q 1894 -91 1617 61 
Q 1341 213 1159 525 
L 1159 0 
L 581 0 
L 581 4863 
L 1159 4863 
L 1159 2969 
z
" id="DejaVuSans-62" transform="scale(0.015625)"/>
      <path d="M 544 1381 
L 544 3500 
L 1119 3500 
L 1119 1403 
Q 1119 906 1312 657 
Q 1506 409 1894 409 
Q 2359 409 2629 706 
Q 2900 1003 2900 1516 
L 2900 3500 
L 3475 3500 
L 3475 0 
L 2900 0 
L 2900 538 
Q 2691 219 2414 64 
Q 2138 -91 1772 -91 
Q 1169 -91 856 284 
Q 544 659 544 1381 
z
M 1991 3584 
L 1991 3584 
z
" id="DejaVuSans-75" transform="scale(0.015625)"/>
      <path d="M 1959 3097 
Q 1497 3097 1228 2736 
Q 959 2375 959 1747 
Q 959 1119 1226 758 
Q 1494 397 1959 397 
Q 2419 397 2687 759 
Q 2956 1122 2956 1747 
Q 2956 2369 2687 2733 
Q 2419 3097 1959 3097 
z
M 1959 3584 
Q 2709 3584 3137 3096 
Q 3566 2609 3566 1747 
Q 3566 888 3137 398 
Q 2709 -91 1959 -91 
Q 1206 -91 779 398 
Q 353 888 353 1747 
Q 353 2609 779 3096 
Q 1206 3584 1959 3584 
z
" id="DejaVuSans-6f" transform="scale(0.015625)"/>
      <path d="M 3513 2113 
L 3513 0 
L 2938 0 
L 2938 2094 
Q 2938 2591 2744 2837 
Q 2550 3084 2163 3084 
Q 1697 3084 1428 2787 
Q 1159 2491 1159 1978 
L 1159 0 
L 581 0 
L 581 3500 
L 1159 3500 
L 1159 2956 
Q 1366 3272 1645 3428 
Q 1925 3584 2291 3584 
Q 2894 3584 3203 3211 
Q 3513 2838 3513 2113 
z
" id="DejaVuSans-6e" transform="scale(0.015625)"/>
      <path id="DejaVuSans-20" transform="scale(0.015625)"/>
      <path d="M 2375 4863 
L 2375 4384 
L 1825 4384 
Q 1516 4384 1395 4259 
Q 1275 4134 1275 3809 
L 1275 3500 
L 2222 3500 
L 2222 3053 
L 1275 3053 
L 1275 0 
L 697 0 
L 697 3053 
L 147 3053 
L 147 3500 
L 697 3500 
L 697 3744 
Q 697 4328 969 4595 
Q 1241 4863 1831 4863 
L 2375 4863 
z
" id="DejaVuSans-66" transform="scale(0.015625)"/>
      <path d="M 3328 2828 
Q 3544 3216 3844 3400 
Q 4144 3584 4550 3584 
Q 5097 3584 5394 3201 
Q 5691 2819 5691 2113 
L 5691 0 
L 5113 0 
L 5113 2094 
Q 5113 2597 4934 2840 
Q 4756 3084 4391 3084 
Q 3944 3084 3684 2787 
Q 3425 2491 3425 1978 
L 3425 0 
L 2847 0 
L 2847 2094 
Q 2847 2600 2669 2842 
Q 2491 3084 2119 3084 
Q 1678 3084 1418 2786 
Q 1159 2488 1159 1978 
L 1159 0 
L 581 0 
L 581 3500 
L 1159 3500 
L 1159 2956 
Q 1356 3278 1631 3431 
Q 1906 3584 2284 3584 
Q 2666 3584 2933 3390 
Q 3200 3197 3328 2828 
z
" id="DejaVuSans-6d" transform="scale(0.015625)"/>
      <path d="M 191 3500 
L 800 3500 
L 1894 563 
L 2988 3500 
L 3597 3500 
L 2284 0 
L 1503 0 
L 191 3500 
z
" id="DejaVuSans-76" transform="scale(0.015625)"/>
      <path d="M 3597 1894 
L 3597 1613 
L 953 1613 
Q 991 1019 1311 708 
Q 1631 397 2203 397 
Q 2534 397 2845 478 
Q 3156 559 3463 722 
L 3463 178 
Q 3153 47 2828 -22 
Q 2503 -91 2169 -91 
Q 1331 -91 842 396 
Q 353 884 353 1716 
Q 353 2575 817 3079 
Q 1281 3584 2069 3584 
Q 2775 3584 3186 3129 
Q 3597 2675 3597 1894 
z
M 3022 2063 
Q 3016 2534 2758 2815 
Q 2500 3097 2075 3097 
Q 1594 3097 1305 2825 
Q 1016 2553 972 2059 
L 3022 2063 
z
" id="DejaVuSans-65" transform="scale(0.015625)"/>
      <path d="M 2906 2969 
L 2906 4863 
L 3481 4863 
L 3481 0 
L 2906 0 
L 2906 525 
Q 2725 213 2448 61 
Q 2172 -91 1784 -91 
Q 1150 -91 751 415 
Q 353 922 353 1747 
Q 353 2572 751 3078 
Q 1150 3584 1784 3584 
Q 2172 3584 2448 3432 
Q 2725 3281 2906 2969 
z
M 947 1747 
Q 947 1113 1208 752 
Q 1469 391 1925 391 
Q 2381 391 2643 752 
Q 2906 1113 2906 1747 
Q 2906 2381 2643 2742 
Q 2381 3103 1925 3103 
Q 1469 3103 1208 2742 
Q 947 2381 947 1747 
z
" id="DejaVuSans-64" transform="scale(0.015625)"/>
      <path d="M 2194 1759 
Q 1497 1759 1228 1600 
Q 959 1441 959 1056 
Q 959 750 1161 570 
Q 1363 391 1709 391 
Q 2188 391 2477 730 
Q 2766 1069 2766 1631 
L 2766 1759 
L 2194 1759 
z
M 3341 1997 
L 3341 0 
L 2766 0 
L 2766 531 
Q 2569 213 2275 61 
Q 1981 -91 1556 -91 
Q 1019 -91 701 211 
Q 384 513 384 1019 
Q 384 1609 779 1909 
Q 1175 2209 1959 2209 
L 2766 2209 
L 2766 2266 
Q 2766 2663 2505 2880 
Q 2244 3097 1772 3097 
Q 1472 3097 1187 3025 
Q 903 2953 641 2809 
L 641 3341 
Q 956 3463 1253 3523 
Q 1550 3584 1831 3584 
Q 2591 3584 2966 3190 
Q 3341 2797 3341 1997 
z
" id="DejaVuSans-61" transform="scale(0.015625)"/>
      <path d="M 1984 4856 
Q 1566 4138 1362 3434 
Q 1159 2731 1159 2009 
Q 1159 1288 1364 580 
Q 1569 -128 1984 -844 
L 1484 -844 
Q 1016 -109 783 600 
Q 550 1309 550 2009 
Q 550 2706 781 3412 
Q 1013 4119 1484 4856 
L 1984 4856 
z
" id="DejaVuSans-28" transform="scale(0.015625)"/>
      <path d="M 513 4856 
L 1013 4856 
Q 1481 4119 1714 3412 
Q 1947 2706 1947 2009 
Q 1947 1309 1714 600 
Q 1481 -109 1013 -844 
L 513 -844 
Q 928 -128 1133 580 
Q 1338 1288 1338 2009 
Q 1338 2731 1133 3434 
Q 928 4138 513 4856 
z
" id="DejaVuSans-29" transform="scale(0.015625)"/>
     </defs>
     <use xlink:href="#DejaVuSans-44"/>
     <use x="77.001953" xlink:href="#DejaVuSans-69"/>
     <use x="104.785156" xlink:href="#DejaVuSans-73"/>
     <use x="156.884766" xlink:href="#DejaVuSans-74"/>
     <use x="196.09375" xlink:href="#DejaVuSans-72"/>
     <use x="237.207031" xlink:href="#DejaVuSans-69"/>
     <use x="264.990234" xlink:href="#DejaVuSans-62"/>
     <use x="328.466797" xlink:href="#DejaVuSans-75"/>
     <use x="391.845703" xlink:href="#DejaVuSans-74"/>
     <use x="431.054688" xlink:href="#DejaVuSans-69"/>
     <use x="458.837891" xlink:href="#DejaVuSans-6f"/>
     <use x="520.019531" xlink:href="#DejaVuSans-6e"/>
     <use x="583.398438" xlink:href="#DejaVuSans-20"/>
     <use x="615.185547" xlink:href="#DejaVuSans-6f"/>
     <use x="676.367188" xlink:href="#DejaVuSans-66"/>
     <use x="711.572266" xlink:href="#DejaVuSans-20"/>
     <use x="743.359375" xlink:href="#DejaVuSans-6d"/>
     <use x="840.771484" xlink:href="#DejaVuSans-6f"/>
     <use x="901.953125" xlink:href="#DejaVuSans-76"/>
     <use x="961.132812" xlink:href="#DejaVuSans-69"/>
     <use x="988.916016" xlink:href="#DejaVuSans-65"/>
     <use x="1050.439453" xlink:href="#DejaVuSans-20"/>
     <use x="1082.226562" xlink:href="#DejaVuSans-64"/>
     <use x="1145.703125" xlink:href="#DejaVuSans-75"/>
     <use x="1209.082031" xlink:href="#DejaVuSans-72"/>
     <use x="1250.195312" xlink:href="#DejaVuSans-61"/>
     <use x="1311.474609" xlink:href="#DejaVuSans-74"/>
     <use x="1350.683594" xlink:href="#DejaVuSans-69"/>
     <use x="1378.466797" xlink:href="#DejaVuSans-6f"/>
     <use x="1439.648438" xlink:href="#DejaVuSans-6e"/>
     <use x="1503.027344" xlink:href="#DejaVuSans-20"/>
     <use x="1534.814453" xlink:href="#DejaVuSans-28"/>
     <use x="1573.828125" xlink:href="#DejaVuSans-69"/>
     <use x="1601.611328" xlink:href="#DejaVuSans-6e"/>
     <use x="1664.990234" xlink:href="#DejaVuSans-20"/>
     <use x="1696.777344" xlink:href="#DejaVuSans-6d"/>
     <use x="1794.189453" xlink:href="#DejaVuSans-69"/>
     <use x="1821.972656" xlink:href="#DejaVuSans-6e"/>
     <use x="1885.351562" xlink:href="#DejaVuSans-75"/>
     <use x="1948.730469" xlink:href="#DejaVuSans-74"/>
     <use x="1987.939453" xlink:href="#DejaVuSans-65"/>
     <use x="2049.462891" xlink:href="#DejaVuSans-73"/>
     <use x="2101.5625" xlink:href="#DejaVuSans-29"/>
    </g>
   </g>
  </g>
 </g>
 <defs>
  <clipPath id="p2396bb1e50">
   <rect height="217.44" width="669.6" x="108" y="34.56"/>
  </clipPath>
 </defs>
</svg>
